<?xml version="1.0" encoding="UTF-8"?>
<svg width="1440" height="120" viewBox="0 0 1440 120" fill="none" xmlns="http://www.w3.org/2000/svg">
    <g>
        <path d="M0 48L48 42.7C96 37.3 192 26.7 288 32C384 37.3 480 58.7 576 69.3C672 80 768 80 864 74.7C960 69.3 1056 58.7 1152 53.3C1248 48 1344 48 1392 48L1440 48V120H1392C1344 120 1248 120 1152 120C1056 120 960 120 864 120C768 120 672 120 576 120C480 120 384 120 288 120C192 120 96 120 48 120H0V48Z" fill="#6A5ACD" fill-opacity="0.3"/>
        <path d="M0 68L48 62.7C96 57.3 192 46.7 288 52C384 57.3 480 78.7 576 89.3C672 100 768 100 864 94.7C960 89.3 1056 78.7 1152 73.3C1248 68 1344 68 1392 68L1440 68V120H1392C1344 120 1248 120 1152 120C1056 120 960 120 864 120C768 120 672 120 576 120C480 120 384 120 288 120C192 120 96 120 48 120H0V68Z" fill="#6A5ACD" fill-opacity="0.2"/>
        <path d="M0 88L48 82.7C96 77.3 192 66.7 288 72C384 77.3 480 98.7 576 109.3C672 120 768 120 864 114.7C960 109.3 1056 98.7 1152 93.3C1248 88 1344 88 1392 88L1440 88V120H1392C1344 120 1248 120 1152 120C1056 120 960 120 864 120C768 120 672 120 576 120C480 120 384 120 288 120C192 120 96 120 48 120H0V88Z" fill="#6A5ACD" fill-opacity="0.1"/>
    </g>
</svg>
