<?xml version="1.0" encoding="UTF-8"?>
<svg width="1200" height="120" viewBox="0 0 1200 120" preserveAspectRatio="none" xmlns="http://www.w3.org/2000/svg">
    <path d="M321.39,56.44c58-10.79,114.16-30.13,172-41.86,82.39-16.72,168.19-17.73,250.45-.39C823.78,31,906.67,72,985.66,92.83c70.05,18.48,146.53,26.09,214.34,3V0H0V27.35A600.21,600.21,0,0,0,321.39,56.44Z" fill="#6A5ACD" fill-opacity="0.3"/>
    <path d="M321.39,56.44c58-10.79,114.16-30.13,172-41.86,82.39-16.72,168.19-17.73,250.45-.39C823.78,31,906.67,72,985.66,92.83c70.05,18.48,146.53,26.09,214.34,3V0H0V27.35A600.21,600.21,0,0,0,321.39,56.44Z" fill="#6A5ACD" fill-opacity="0.2" transform="translate(0, 20)"/>
    <path d="M321.39,56.44c58-10.79,114.16-30.13,172-41.86,82.39-16.72,168.19-17.73,250.45-.39C823.78,31,906.67,72,985.66,92.83c70.05,18.48,146.53,26.09,214.34,3V0H0V27.35A600.21,600.21,0,0,0,321.39,56.44Z" fill="#6A5ACD" fill-opacity="0.1" transform="translate(0, 40)"/>
</svg>
